<?xml version="1.0" encoding="UTF-8" standalone="no"?>
<!-- Created with Inkscape (http://www.inkscape.org/) -->

<svg
     xmlns:dc="http://purl.org/dc/elements/1.1/"
     xmlns:cc="http://creativecommons.org/ns#"
     xmlns:rdf="http://www.w3.org/1999/02/22-rdf-syntax-ns#"
     xmlns:svg="http://www.w3.org/2000/svg"
     xmlns="http://www.w3.org/2000/svg"
     xmlns:sodipodi="http://sodipodi.sourceforge.net/DTD/sodipodi-0.dtd"
     xmlns:inkscape="http://www.inkscape.org/namespaces/inkscape"
     width="148.23988"
     height="166.67517"
     id="svg2"
     version="1.1"
     inkscape:version="0.48.2 r9819"
     sodipodi:docname="Neues Dokument 1">
    <defs
         id="defs4" />
    <sodipodi:namedview
         id="base"
         pagecolor="#ffffff"
         bordercolor="#666666"
         borderopacity="1.0"
         inkscape:pageopacity="0.0"
         inkscape:pageshadow="2"
         inkscape:zoom="0.7"
         inkscape:cx="7.0198128"
         inkscape:cy="58.865402"
         inkscape:document-units="px"
         inkscape:current-layer="layer1"
         showgrid="false"
         inkscape:object-paths="true"
         inkscape:object-nodes="true"
         inkscape:snap-global="false"
         fit-margin-top="0"
         fit-margin-left="0"
         fit-margin-right="0"
         fit-margin-bottom="0"
         inkscape:window-width="1835"
         inkscape:window-height="1060"
         inkscape:window-x="83"
         inkscape:window-y="-3"
         inkscape:window-maximized="1" />
    <metadata
         id="metadata7">
        <rdf:RDF>
            <cc:Work
                 rdf:about="">
                <dc:format>image/svg+xml</dc:format>
                <dc:type
                     rdf:resource="http://purl.org/dc/dcmitype/StillImage" />
                <dc:title></dc:title>
            </cc:Work>
        </rdf:RDF>
    </metadata>
    <g
         inkscape:label="Ebene 1"
         inkscape:groupmode="layer"
         id="layer1"
         transform="translate(-69.70945,-239.69446)">
        <path
             style="fill:#999999;fill-opacity:1;stroke:none"
             d="M 117.43916,393.99526 69.70945,262.42289 191.1803,299.546 173.50263,364.70084 z"
             id="path3009"
             inkscape:connector-curvature="0" />
        <path
             style="fill:#4d4d4d;fill-opacity:1;stroke:none"
             d="M 117.43916,393.99526 69.70945,262.42289 80.56859,373.79221 106.32748,406.36963 z"
             id="path3787"
             inkscape:connector-curvature="0" />
        <path
             style="fill:#666666;fill-opacity:1;stroke:none"
             d="M 191.1803,299.546 217.94934,267.22111 185.11938,239.69446 69.70945,262.42289 z"
             id="path3789"
             inkscape:connector-curvature="0" />
        <path
             style="fill:#1a1a1a;fill-opacity:1;stroke:none"
             d="m 106.32748,406.36963 11.11168,-12.37437 56.06347,-29.29442 43.6891,12.37437 z"
             id="path3791"
             inkscape:connector-curvature="0" />
        <path
             style="fill:#333333;fill-opacity:1;stroke:none"
             d="m 217.19173,377.07521 0.75761,-109.8541 -26.76904,32.32489 -17.67767,65.15484 z"
             id="path3793"
             inkscape:connector-curvature="0" />
        <path
             style="fill:none;stroke:#ffffff;stroke-width:4;stroke-linecap:round;stroke-linejoin:round;stroke-opacity:1"
             d="m 178.03572,258.96932 -38.59218,0.76909 25.11545,11.05095 c 0,0 0.55948,-13.56214 0.79817,-15.57008"
             id="path3795"
             inkscape:connector-curvature="0"
             sodipodi:nodetypes="cccc" />
        <path
             style="fill:none;stroke:#ffffff;stroke-width:6;stroke-linecap:round;stroke-linejoin:miter;stroke-opacity:1"
             d="m 134.04912,310.00095 c -5.97749,-8.14681 -13.98028,-10.50378 -18.95629,-6.68747 -6.22173,4.77169 -5.75279,14.34006 -1.52653,22.26912 3.76152,7.05714 12.23694,19.2571 23.38869,13.02586 8.26472,-4.61805 3.61739,-19.71687 -2.90587,-28.60751 z"
             id="path3800"
             inkscape:connector-curvature="0"
             sodipodi:nodetypes="sssss" />
        <path
             style="fill:none;stroke:#ffffff;stroke-width:2;stroke-linecap:round;stroke-linejoin:miter;stroke-opacity:1"
             d="m 86.08957,345.04846 c 5.315214,2.08501 11.255902,18.78078 3.71429,19.76989 -4.358939,0.57169 -6.445999,-12.87284 -5.963431,-15.45937 0.861863,-4.61952 3.265522,-3.3105 4.256211,-5.63414 2.128473,-4.99228 -4.02464,-16.59017 -7.00352,-14.88827 -3.478873,1.98756 1.276758,14.75276 4.99645,16.21189 z"
             id="path3807"
             inkscape:connector-curvature="0"
             sodipodi:nodetypes="ssssss" />
        <path
             style="fill:none;stroke:#ffffff;stroke-width:2;stroke-linecap:round;stroke-linejoin:miter;stroke-opacity:1"
             d="m 160.24438,383.51493 c -5.27244,0.0163 -13.18139,3.0949 -11.73782,5.89358 1.42275,2.7583 12.11548,-2.14422 16.97794,-4.27476 -0.37401,2.98007 2.2202,2.77881 4.21009,1.47427 l 12.39434,-6.50232"
             id="path3811"
             inkscape:connector-curvature="0"
             sodipodi:nodetypes="csccc" />
        <path
             style="fill:none;stroke:#ffffff;stroke-width:2;stroke-linecap:round;stroke-linejoin:round;stroke-miterlimit:8;stroke-opacity:1;stroke-dasharray:none"
             d="m 206.51785,316.82647 -1.65933,35.13363 9.33785,-19.15149"
             id="path3815"
             inkscape:connector-curvature="0"
             sodipodi:nodetypes="ccc" />
    </g>
</svg>
