<?xml version="1.0" encoding="UTF-8" standalone="no"?>
<!-- Created with Inkscape (http://www.inkscape.org/) -->

<svg
   xmlns:dc="http://purl.org/dc/elements/1.1/"
   xmlns:cc="http://creativecommons.org/ns#"
   xmlns:rdf="http://www.w3.org/1999/02/22-rdf-syntax-ns#"
   xmlns:svg="http://www.w3.org/2000/svg"
   xmlns="http://www.w3.org/2000/svg"
   xmlns:sodipodi="http://sodipodi.sourceforge.net/DTD/sodipodi-0.dtd"
   xmlns:inkscape="http://www.inkscape.org/namespaces/inkscape"
   width="145"
   height="145"
   id="svg2"
   version="1.1"
   inkscape:version="0.48.2 r9819"
   sodipodi:docname="W6_3.svg">
  <defs
     id="defs4" />
  <sodipodi:namedview
     id="base"
     pagecolor="#ffffff"
     bordercolor="#666666"
     borderopacity="1.0"
     inkscape:pageopacity="0.0"
     inkscape:pageshadow="2"
     inkscape:zoom="2"
     inkscape:cx="8.41132"
     inkscape:cy="67.605243"
     inkscape:document-units="px"
     inkscape:current-layer="layer3"
     showgrid="false"
     inkscape:object-paths="true"
     inkscape:object-nodes="true"
     inkscape:snap-global="true"
     fit-margin-top="0"
     fit-margin-left="0"
     fit-margin-right="0"
     fit-margin-bottom="0"
     inkscape:window-width="1606"
     inkscape:window-height="1029"
     inkscape:window-x="70"
     inkscape:window-y="-4"
     inkscape:window-maximized="1"
     inkscape:snap-object-midpoints="false"
     inkscape:snap-center="true"
     inkscape:snap-midpoints="true"
     inkscape:snap-intersection-paths="true" />
  <metadata
     id="metadata7">
    <rdf:RDF>
      <cc:Work
         rdf:about="">
        <dc:format>image/svg+xml</dc:format>
        <dc:type
           rdf:resource="http://purl.org/dc/dcmitype/StillImage" />
        <dc:title />
      </cc:Work>
    </rdf:RDF>
  </metadata>
  <g
     inkscape:groupmode="layer"
     id="layer3"
     inkscape:label="3"
     style="display:inline"
     transform="translate(-2.5,44.32483)">
    <path
       style="color:#000000;fill:#333333;fill-opacity:1;fill-rule:nonzero;stroke:none;stroke-width:1px;marker:none;visibility:visible;display:inline;overflow:visible;enable-background:accumulate"
       d="m 147.5,80.67517 -20,20 0,-125 20,-20 z"
       id="use4884"
       inkscape:connector-curvature="0"
       sodipodi:nodetypes="ccccc" />
    <path
       sodipodi:nodetypes="ccccc"
       inkscape:connector-curvature="0"
       id="use4886"
       d="m 22.5,-44.324829 -20,19.999998 125,0 20,-19.999998 z"
       style="color:#000000;fill:#666666;fill-opacity:1;fill-rule:nonzero;stroke:none;stroke-width:1px;marker:none;visibility:visible;display:inline;overflow:visible;enable-background:accumulate" />
    <rect
       y="-24.324831"
       x="2.5"
       height="125"
       width="125"
       id="use4888"
       style="color:#000000;fill:#999999;fill-opacity:1;fill-rule:nonzero;stroke:none;stroke-width:3;marker:none;visibility:visible;display:inline;overflow:visible;enable-background:accumulate" />
    <path
       d="m 215,-3.4915009 c 0,6.4433249 -5.22335,11.6666718 -11.66667,11.6666718 -6.44333,0 -11.66667,-5.2233469 -11.66667,-11.6666718 0,-6.4433248 5.22334,-11.6666721 11.66667,-11.6666721 6.44332,0 11.66667,5.2233473 11.66667,11.6666721 z"
       sodipodi:ry="11.666672"
       sodipodi:rx="11.666672"
       sodipodi:cy="-3.4915009"
       sodipodi:cx="203.33333"
       id="use4890"
       style="color:#000000;fill:#000000;fill-opacity:1;fill-rule:nonzero;stroke:none;stroke-width:3;marker:none;visibility:visible;display:inline;overflow:visible;enable-background:accumulate"
       sodipodi:type="arc"
       transform="translate(-180,0)" />
    <path
       transform="translate(-138.33333,41.66667)"
       sodipodi:type="arc"
       style="color:#000000;fill:#000000;fill-opacity:1;fill-rule:nonzero;stroke:none;stroke-width:3;marker:none;visibility:visible;display:inline;overflow:visible;enable-background:accumulate"
       id="use4896"
       sodipodi:cx="203.33333"
       sodipodi:cy="-3.4915009"
       sodipodi:rx="11.666672"
       sodipodi:ry="11.666672"
       d="m 215,-3.4915009 c 0,6.4433249 -5.22335,11.6666718 -11.66667,11.6666718 -6.44333,0 -11.66667,-5.2233469 -11.66667,-11.6666718 0,-6.4433248 5.22334,-11.6666721 11.66667,-11.6666721 6.44332,0 11.66667,5.2233473 11.66667,11.6666721 z" />
    <path
       transform="translate(-96.666668,83.333343)"
       sodipodi:type="arc"
       style="color:#000000;fill:#000000;fill-opacity:1;fill-rule:nonzero;stroke:none;stroke-width:3;marker:none;visibility:visible;display:inline;overflow:visible;enable-background:accumulate"
       id="use4904"
       sodipodi:cx="203.33333"
       sodipodi:cy="-3.4915009"
       sodipodi:rx="11.666672"
       sodipodi:ry="11.666672"
       d="m 215,-3.4915009 c 0,6.4433249 -5.22335,11.6666718 -11.66667,11.6666718 -6.44333,0 -11.66667,-5.2233469 -11.66667,-11.6666718 0,-6.4433248 5.22334,-11.6666721 11.66667,-11.6666721 6.44332,0 11.66667,5.2233473 11.66667,11.6666721 z" />
    <path
       transform="matrix(0.225,0,0,1,85.08333,-3.3333305)"
       sodipodi:type="arc"
       style="color:#000000;fill:#000000;fill-opacity:1;fill-rule:nonzero;stroke:none;stroke-width:3;marker:none;visibility:visible;display:inline;overflow:visible;enable-background:accumulate"
       id="use4908"
       sodipodi:cx="203.33333"
       sodipodi:cy="-3.4915009"
       sodipodi:rx="11.666672"
       sodipodi:ry="11.666672"
       d="m 215,-3.4915009 c 0,6.4433249 -5.22335,11.6666718 -11.66667,11.6666718 -6.44333,0 -11.66667,-5.2233469 -11.66667,-11.6666718 0,-6.4433248 5.22334,-11.6666721 11.66667,-11.6666721 6.44332,0 11.66667,5.2233473 11.66667,11.6666721 z" />
    <path
       d="m 215,-3.4915009 c 0,6.4433249 -5.22335,11.6666718 -11.66667,11.6666718 -6.44333,0 -11.66667,-5.2233469 -11.66667,-11.6666718 0,-6.4433248 5.22334,-11.6666721 11.66667,-11.6666721 6.44332,0 11.66667,5.2233473 11.66667,11.6666721 z"
       sodipodi:ry="11.666672"
       sodipodi:rx="11.666672"
       sodipodi:cy="-3.4915009"
       sodipodi:cx="203.33333"
       id="use4912"
       style="color:#000000;fill:#000000;fill-opacity:1;fill-rule:nonzero;stroke:none;stroke-width:3;marker:none;visibility:visible;display:inline;overflow:visible;enable-background:accumulate"
       sodipodi:type="arc"
       transform="matrix(0.225,0,0,1,98.41666,-16.666656)" />
    <path
       d="m 215,-3.4915009 c 0,6.4433249 -5.22335,11.6666718 -11.66667,11.6666718 -6.44333,0 -11.66667,-5.2233469 -11.66667,-11.6666718 0,-6.4433248 5.22334,-11.6666721 11.66667,-11.6666721 6.44332,0 11.66667,5.2233473 11.66667,11.6666721 z"
       sodipodi:ry="11.666672"
       sodipodi:rx="11.666672"
       sodipodi:cy="-3.4915009"
       sodipodi:cx="203.33333"
       id="use4914"
       style="color:#000000;fill:#000000;fill-opacity:1;fill-rule:nonzero;stroke:none;stroke-width:3;marker:none;visibility:visible;display:inline;overflow:visible;enable-background:accumulate"
       sodipodi:type="arc"
       transform="matrix(0.225,0,0,1,84.97598,38.44069)" />
    <path
       d="m 215,-3.4915009 c 0,6.4433249 -5.22335,11.6666718 -11.66667,11.6666718 -6.44333,0 -11.66667,-5.2233469 -11.66667,-11.6666718 0,-6.4433248 5.22334,-11.6666721 11.66667,-11.6666721 6.44332,0 11.66667,5.2233473 11.66667,11.6666721 z"
       sodipodi:ry="11.666672"
       sodipodi:rx="11.666672"
       sodipodi:cy="-3.4915009"
       sodipodi:cx="203.33333"
       id="use4918"
       style="color:#000000;fill:#000000;fill-opacity:1;fill-rule:nonzero;stroke:none;stroke-width:3;marker:none;visibility:visible;display:inline;overflow:visible;enable-background:accumulate"
       sodipodi:type="arc"
       transform="matrix(0.225,0,0,1,98.43786,24.978811)" />
    <path
       d="m 215,-3.4915009 c 0,6.4433249 -5.22335,11.6666718 -11.66667,11.6666718 -6.44333,0 -11.66667,-5.2233469 -11.66667,-11.6666718 0,-6.4433248 5.22334,-11.6666721 11.66667,-11.6666721 6.44332,0 11.66667,5.2233473 11.66667,11.6666721 z"
       sodipodi:ry="11.666672"
       sodipodi:rx="11.666672"
       sodipodi:cy="-3.4915009"
       sodipodi:cx="203.33333"
       id="use4920"
       style="color:#000000;fill:#000000;fill-opacity:1;fill-rule:nonzero;stroke:none;stroke-width:3;marker:none;visibility:visible;display:inline;overflow:visible;enable-background:accumulate"
       sodipodi:type="arc"
       transform="matrix(0.225,0,0,1,85.08333,80.000008)" />
    <path
       d="m 215,-3.4915009 c 0,6.4433249 -5.22335,11.6666718 -11.66667,11.6666718 -6.44333,0 -11.66667,-5.2233469 -11.66667,-11.6666718 0,-6.4433248 5.22334,-11.6666721 11.66667,-11.6666721 6.44332,0 11.66667,5.2233473 11.66667,11.6666721 z"
       sodipodi:ry="11.666672"
       sodipodi:rx="11.666672"
       sodipodi:cy="-3.4915009"
       sodipodi:cx="203.33333"
       id="use4924"
       style="color:#000000;fill:#000000;fill-opacity:1;fill-rule:nonzero;stroke:none;stroke-width:3;marker:none;visibility:visible;display:inline;overflow:visible;enable-background:accumulate"
       sodipodi:type="arc"
       transform="matrix(0.225,0,0,1,98.54521,66.538128)" />
    <path
       d="m 215,-3.4915009 c 0,6.4433249 -5.22335,11.6666718 -11.66667,11.6666718 -6.44333,0 -11.66667,-5.2233469 -11.66667,-11.6666718 0,-6.4433248 5.22334,-11.6666721 11.66667,-11.6666721 6.44332,0 11.66667,5.2233473 11.66667,11.6666721 z"
       sodipodi:ry="11.666672"
       sodipodi:rx="11.666672"
       sodipodi:cy="-3.4915009"
       sodipodi:cx="203.33333"
       id="use4926"
       style="color:#000000;fill:#000000;fill-opacity:1;fill-rule:nonzero;stroke:none;stroke-width:3;marker:none;visibility:visible;display:inline;overflow:visible;enable-background:accumulate"
       sodipodi:type="arc"
       transform="matrix(0,-0.225,1,0,113.38414,18.19919)" />
    <path
       d="m 215,-3.4915009 c 0,6.4433249 -5.22335,11.6666718 -11.66667,11.6666718 -6.44333,0 -11.66667,-5.2233469 -11.66667,-11.6666718 0,-6.4433248 5.22334,-11.6666721 11.66667,-11.6666721 6.44332,0 11.66667,5.2233473 11.66667,11.6666721 z"
       sodipodi:ry="11.666672"
       sodipodi:rx="11.666672"
       sodipodi:cy="-3.4915009"
       sodipodi:cx="203.33333"
       id="use4942"
       style="color:#000000;fill:#000000;fill-opacity:1;fill-rule:nonzero;stroke:none;stroke-width:3;marker:none;visibility:visible;display:inline;overflow:visible;enable-background:accumulate"
       sodipodi:type="arc"
       transform="matrix(0,-0.225,1,0,43.62004,4.62996)" />
  </g>
</svg>
